<?xml version="1.0" encoding="utf-8"?>
<!-- Generator: Adobe Illustrator 16.0.0, SVG Export Plug-In . SVG Version: 6.00 Build 0)  -->
<!DOCTYPE svg PUBLIC "-//W3C//DTD SVG 1.1//EN" "http://www.w3.org/Graphics/SVG/1.1/DTD/svg11.dtd">
<svg version="1.1" id="图层_1" xmlns="http://www.w3.org/2000/svg" xmlns:xlink="http://www.w3.org/1999/xlink" x="0px" y="0px"
	 width="800px" height="800px" viewBox="0 0 800 800" enable-background="new 0 0 800 800" xml:space="preserve">
<path fill="#FF6A00" d="M749.375,299.922c-0.234-64.141-52.266-116.094-116.484-116.094H449.922l16.875,66.563l157.031,34.141
	c14.565,3.386,25.081,16.075,25.703,31.016c0.078,0.391,0.078,168.828,0,169.219c-0.622,14.94-11.138,27.629-25.703,31.016
	l-157.031,34.141l-16.875,66.641H632.89c64.141,0,116.25-51.953,116.485-116.095L749.375,299.922L749.375,299.922z M176.172,515.938
	c-14.564-3.387-25.08-16.076-25.703-31.016c-0.078-0.469-0.078-168.828,0-169.219c0.625-15.156,11.406-27.734,25.703-31.016
	l157.031-34.141l16.875-66.563H167.031c-64.141,0-116.25,51.875-116.484,116.093v200.704
	c0.234,64.14,52.344,116.093,116.484,116.093H350l-16.875-66.641L176.172,515.938L176.172,515.938z M333.125,391.875h133.594v16.641
	H333.125V391.875z"/>
</svg>
