<svg xmlns="http://www.w3.org/2000/svg" height="800" width="1200" viewBox="-48.615 -20.425 421.33 122.55"><g fill="#231F20"><path d="M46 0s6.7 13.7 5.5 19.4c0 0 17.6 5.7 19.5 15.1 0-.1 9.6-12.7-25-34.5zm-6.8 20.5c1.7 3.6 2.5 7.5 3.5 11.5l-10-3.8c.9-6.1-5-15.3-5-15.3zm-17.8 9.4c1.1 2.9 2.4 6.6 3 9.8l-9-2.2c.9-6.1-4.8-13.4-4.8-13.4z"/><path d="M41.1 15.3s40.3 28.3 43 39.3c2 8.3-3.8 15.9-3.8 15.9S77.2 48.9 0 81.7C7.8 73 12.1 61.8 10.9 49.8c-.5-4.9-1.7-9.6-3.8-13.8l18.1 9.5c0 .3 0 .6.1.9.7 7.3.2 14.5-1.5 21.1 3.7-7.8 5.5-16.7 4.6-25.9-.5-5.6-1.9-10.9-4.1-15.7l19.3 12.9c.1.6.1 1.3.2 1.9.8 8.1 0 16-2.1 23.2 4.5-8.4 6.8-18.2 5.8-28.3-.7-7.4-2.9-14.2-6.4-20.3zm49.2 36c0 11.6 9.6 19.7 21.8 19.2 7.3-.3 11.6-3 13.1-3.7v-10h-1.5c-1.4 6.1-5.1 11.2-11.5 11.2-7.9 0-14-7.7-14-16.7s6.2-16.7 14-16.7c6.4 0 10.1 5 11.5 11.2h1.5v-10c-1.5-.7-5.8-3.3-13.1-3.7-12.2-.5-21.8 7.6-21.8 19.2zm57.5-19.2c-10.7 0-19 8.6-19 19.3 0 10.6 8.3 19.3 19 19.3s19-8.6 19-19.3c0-10.7-8.3-19.3-19-19.3zm0 36.2c-6.7 0-11.2-7.9-11.2-17 0-9 4.5-17 11.2-17 6.7 0 11.2 7.9 11.2 17 0 9-4.5 17-11.2 17zM210.4 40c0-3.1 3.2-5.6 6.5-5.7 3.6 0 7.2 1.6 9.1 8.6h1v-8.4c-1.5-.5-5.1-2.4-10.2-2.4-6.2 0-12.4 3.8-12.4 10.9 0 12.7 17.4 10.3 17.4 18.8 0 4.3-2.6 6.3-6.6 6.3-3.9 0-8.4-3.2-9.9-9.6H204v9.2c1.6.5 5.7 2.9 11 2.9 9.2 0 13.7-6.1 13.7-11.6.1-13.6-18.3-9.5-18.3-19zm69.2-3.3c0-.8.5-1.5 1.1-1.9l2.4-1.3v-.6h-14.3v.6l2.4 1.3c.7.4 1.1 1.1 1.1 1.9V66c0 .8-.5 1.5-1.1 1.9l-2.4 1.3v.6h14.3v-.6l-2.4-1.3c-.7-.4-1.1-1.1-1.1-1.9zm-112.5-3.8v.6l2.4 1.3c.7.4 1.1 1.1 1.1 1.9V66c0 .8-.5 1.5-1.1 1.9l-2.4 1.3v.6h14.3v-.6l-2.4-1.3c-.7-.4-1.1-1.1-1.1-1.9V36.7c0-.5.2-.9.4-1.3.2-.3.5-.4.9-.4h4.6c2.8 0 5.8 3.3 5.8 7.4v2.1c0 4.1-2.7 6.9-5.8 6.9H181s9 15.5 10.4 17.2c2 2.5 8.6 5.8 13.7 4.7-5-2.7-9.7-11.3-13.6-18.5-2.1-.3-3.5-1-4.4-1.6 7.9 0 9.9-6.5 9.9-9.7 0-8.7-6.1-10.5-13-10.5h-16.9zm119 0v.6l2.4 1.3c.7.4 1.1 1.1 1.1 1.9V66c0 .8-.5 1.5-1.1 1.9l-2.4 1.3v.6h14.3v-.6l-2.4-1.3c-.7-.4-1.1-1.1-1.1-1.9V36.7c0-.5.2-.9.4-1.3.2-.3.5-.4.9-.4h4.6c2.8 0 5.8 3.3 5.8 7.4v2.1c0 4.1-2.7 6.9-5.8 6.9H300s9 15.5 10.4 17.2c2 2.5 8.6 5.8 13.7 4.7-5-2.7-9.7-11.3-13.6-18.5-2.1-.3-3.5-1-4.4-1.6 7.9 0 9.9-6.5 9.9-9.7 0-8.7-6.1-10.5-13-10.5h-16.9zm-21.6 35c-.5-.3-.8-.7-1-1.1l-13.6-33.9h-4.4l-13.6 33.9c-.2.5-.5.9-1 1.1l-2.4 1.3v.6h11v-.6l-2.1-1.1c-.7-.4-1.2-1.1-1.2-2 0-.3.1-.6.2-.8l3-7.4h12.8l3 7.4c.1.2.1.5.1.7 0 .7-.3 1.3-.8 1.7-.1.1-.2.1-.3.2l-2.4 1.3v.6h15.1v-.6zm-24.2-12.7l5.3-13.2 5.3 13.2z"/></g></svg>