<?xml version="1.0" encoding="UTF-8"?> <svg xmlns="http://www.w3.org/2000/svg" viewBox="0 0 1000 1000"><defs><style>.cls-1{fill:#fff;}.cls-2{fill:#58b94d;}.cls-3{fill:#e7252d;}</style></defs><g id="Layer_2"><rect class="cls-1" width="1000" height="1000"></rect></g><g id="Layer_1"><g id="Layer_1-2"><g><path d="M567.72,429.11c1.76-11.27,2.38-22.54,1.85-33.9-.35-7.75-1.59-15.32-2.91-22.98-.88-5.2-3.08-7.66-8.81-8.63-25.71-4.31-49.84-13.38-72.91-25.63-19.11-10.13-36.9-22.1-51.95-37.6-4.58-4.76-8.89-6.16-15.41-4.93-21.49,4.05-39.45,14.44-54.51,29.76-8.19,8.28-14.97,17.88-20.78,28.09-12.77,22.01-19.73,45.88-21.49,70.98-1.32,19.11-1.14,38.39,4.76,56.97,.79,2.47,.09,4.4-1.85,6.25-7.4,6.96-16.2,11.54-25.63,14.79-18.49,6.43-37.51,9.16-57.24,8.1-11.45-.62-22.63-2.2-33.46-6.08-2.2-.79-3.35-2.03-4.14-4.05-4.14-10.3-14.53-12.94-22.98-6.16-2.11,1.67-3.87,3.61-5.37,5.64-9.07,11.98-12.94,25.27-10.48,40.33,.44,2.82,1.94,3.87,4.23,4.05,3.79,.26,7.66,.62,11.36-.26,10.57-2.38,16.82-9.33,20.52-19.11q2.2-5.72,8.1-4.23c20.87,5.11,41.92,7.93,63.4,5.28,21.49-2.55,40.68-10.3,56.36-25.63,1.94-1.85,2.64-2.55,3.96,.7,3.96,9.69,9.69,18.4,16.56,26.24,18.49,21.49,42.36,31.97,70.54,32.93,3.61,.09,4.76,.53,3.08,4.4-3.17,7.22-5.9,14.62-8.72,22.01-9.77,25.01-19.55,50.02-29.41,75.03-.53,1.41-1.06,2.91-2.82,3.79-7.93,3.87-11.36,11.1-13.3,19.11-1.94,8.19,1.14,14.53,8.98,17.17,17.08,5.72,34.25,5.99,51.43-.18,4.05-1.41,4.76-3.87,4.05-7.31-.7-3.08-1.59-6.16-3.43-8.98-6.96-10.48-17.35-14.44-29.15-15.32-3.96-.26-4.4-1.41-3.08-4.67,13.03-33.02,26.15-66.04,38.83-99.15,1.76-4.58,4.31-6.25,8.81-6.69,13.21-1.23,25.71-5.02,37.87-10.39,10.39-4.58,19.55-11.1,28.27-18.23,.35-.35,.7-.62,1.06-.79h.09c.53-.44,4.4-4.31,9.33-9.51,1.76-1.94,3.35-3.52,4.4-4.76,.09-.09,.09-.18,.18-.18h0c1.67-2.2,3.26-3.79,4.31-5.64,2.47-4.31,5.46-6.34,9.25-7.04l-32.41-3.43c-14.53,8.45-29.59,13.56-45.44,16.47-16.82,3.08-33.46,3.08-49.58-2.91-33.29-12.24-53.98-36.02-60.85-70.62-7.57-37.87,2.64-72.03,24.83-102.85,5.81-8.1,13.3-14.71,21.31-20.69,1.85-1.41,3.17-1.06,4.93,.35,14.79,11.45,29.94,22.37,45.97,32.14,3.35,2.03,6.78,3.96,10.57,6.25h0c-25.89,17.79-23.51,45.79-13.65,61.02,10.74,16.64,33.29,23.78,52.84,15.5,18.05-7.66,28.53-25.8,24.83-48.43,4.84,1.06,9.42,2.2,14,2.99,5.9,1.06,11.8,1.85,17.7,2.64,1.76,.26,2.47,1.06,2.64,2.82,1.41,11.71,1.59,23.34-.97,34.87-.26,1.23-.53,2.47-1.41,3.35,1.14-.26,3.26-.62,5.9-.62,3.08,0,5.64,.44,7.22,.79-.53-.79-.35-2.03-.18-3.26Zm-76.44-50.9c-.09,5.28-4.58,11.36-9.07,12.24-5.11,.97-10.13-1.85-12.33-6.87-2.2-5.11-.44-12.42,3.79-15.41,.44-.35,.88-.79,1.41-.97,4.23-1.94,16.29,6.34,16.2,11.01h0Z"></path><path class="cls-2" d="M744.54,607.87c-3.52,6.43-9.95,7.49-15.59,2.73-11.71-9.77-24.57-17.88-37.78-25.45-16.11-9.33-33.11-16.73-50.63-22.98-16.82-5.99-34.25-9.6-51.69-13.47-17.08-3.79-34.17-7.49-51.51-10.13-3.17-.44-6.34-1.23-9.51-1.32-5.37-.09-9.69-2.29-12.86-6.34-1.23-1.5-1.94-1.76-2.91-1.14,.53-.44,4.4-4.31,9.33-9.51,1.76-1.94,3.35-3.52,4.4-4.76,.09-.09,.09-.18,.18-.18h0c19.64-5.11,39.1-3.79,58.38-3.17,30.91,1.06,61.38,5.72,90.26,17.52,19.37,7.84,37.25,18.23,52.75,32.49,7.4,6.78,13.83,14.27,17.52,23.69,2.82,7.31,3.7,14.71-.35,22.01Z"></path><path class="cls-2" d="M539.63,502.64c2.29-.44,4.84-.35,7.75-.09,17.26,1.94,34.7,2.38,52.04,2.91,16.56,.53,33.02-.62,49.58-1.59,17.26-.97,34.25-2.99,51.25-6.16,32.41-5.99,63.05-16.11,90.52-34.7,16.11-10.92,29.5-24.39,37.95-42.18,4.67-9.77,7.66-20.17,8.98-31v-28.18c-1.06-5.72-1.94-11.54-3.35-17.17-1.59-6.43-4.84-11.8-10.74-15.41-7.4-4.4-19.02-2.03-26.51,4.4-11.71,10.13-24.22,19.28-37.25,27.65-32.23,20.61-65.6,39.01-101.27,53.01-20.61,8.1-42.09,13.03-64.02,15.85-7.93,1.06-15.94,1.59-23.86,2.55-1.23,.18-2.03,0-2.47-.44-1.41-.35-3.96-.79-7.04-.7-2.82,0-5.11,.35-6.16,.62-.44,.35-.97,.7-1.67,.88-1.76,.44-1.76,2.47-2.2,3.96-2.64,9.16-6.87,17.35-15.06,22.98-5.2,3.52-10.74,3.87-16.73,3.26-10.57-1.06-20.43,1.06-28.71,7.93-7.57,6.34-5.9,17.79,2.91,22.98,4.14,2.47,8.81,3.61,14.09,4.76-.18,.09-.26,.18-.44,.26l32.41,3.61Z"></path><path d="M327.32,748.06c-1.76-18.23-9.51-32.85-24.13-43.85-10.57-7.93-22.9-11.18-35.75-11.45-22.54-.53-45.17-.18-67.81-.18-2.55,0-3.7,1.14-4.14,3.52-4.4,20.52-8.81,41.04-13.21,61.64-6.69,31.44-13.3,62.96-19.99,94.49h0v.88c1.94,.09,3.79,.26,5.72,.26,21.4,0,42.88-.09,64.28,.09,4.58,0,9.07-.35,13.56-1.14,31.79-5.81,54.77-23.78,70.18-51.6,8.98-16.29,13.12-33.81,11.27-52.66Zm-55.48,53.54c-8.63,9.6-19.2,15.67-31.88,17.96-10.13,1.85-20.43,1.5-30.64,1.5-2.47,0-1.94-1.76-1.67-3.08,2.82-13.12,5.64-26.24,8.45-39.36,3.61-16.82,7.22-33.64,10.66-50.55,.62-3.08,1.85-4.31,4.93-4.14,4.4,.18,8.81,0,13.21,0h0c7.57,.18,15.15-.53,22.54,2.29,12.15,4.76,19.55,13.3,21.22,26.07,2.64,19.2-4.23,35.31-16.82,49.31Z"></path><path d="M681.84,903.31c1.5-10.57,4.14-20.87,6.34-31.26,.62-2.73,1.94-3.52,4.49-3.43,4.84,.09,9.69,.26,14.53-.18,8.81-.88,12.33-8.54,17.35-14.27,5.99-6.69,6.16-13.91,4.49-22.19-4.76-23.42-8.81-46.94-13.12-70.45-1.59-8.72-3.17-17.52-4.93-26.24-.62-2.99,.35-4.05,3.26-4.05,10.13,.09,20.25,.09,30.38,0,3.08-.09,3.7,1.76,4.14,3.96,2.47,13.21,4.93,26.33,7.4,39.54,1.23,6.69,2.55,13.38,3.96,21.05,5.72-9.42,10.92-17.96,16.11-26.51,7.22-11.89,14.53-23.69,21.66-35.49,.88-1.5,1.85-2.47,3.79-2.47,11.98,.18,24.04,.18,36.02,.26v2.64c-5.2,8.45-10.48,16.82-15.59,25.36-18.4,30.47-36.9,60.94-55.21,91.49-7.04,11.62-14.27,23.16-23.16,33.37-9.16,10.57-20.61,17-34.61,18.84h-27.3Z"></path><path class="cls-3" d="M494.28,96.69c1.85,.35,3.61,.7,5.46,1.06-43.68,18.14-72.56,48.52-81.54,96.69-2.91-2.64-3.87-5.99-5.28-8.98-6.78-14.79-9.51-30.12-5.46-46.05,4.31-16.91,15.76-28,31.35-34.96,10.48-4.67,21.57-7.13,33.11-7.22,.7,0,1.41-.35,2.11-.53,6.78,0,13.47,0,20.25,0h0Z"></path><path d="M640.98,269.37c-2.91,.79-4.4-.44-6.16-1.06-22.81-8.1-46.05-13.91-70.01-17.26-18.84-2.64-37.78-4.05-56.8-3.35-32.93,1.32-64.81,7.66-95.19,20.87-16.03,6.96-31.17,15.41-45.17,25.8-18.23,13.56-33.37,29.94-45,49.67-14.18,24.04-22.28,50.02-26.15,77.49-1.85,12.86-3.17,25.71-3.61,38.75-.09,3.87-.79,7.84-.88,11.8,0,1.14-.35,2.55-1.67,2.73s-1.23-1.32-1.67-2.2c-5.72-12.59-8.72-25.89-10.48-39.63-1.32-10.66-2.2-21.31-1.59-31.97,1.23-24.04,5.99-47.46,15.59-69.65,6.78-15.76,14.71-30.82,24.92-44.73,12.94-17.61,27.47-33.64,44.82-47.2,20.17-15.76,42.44-26.68,67.37-32.23,8.54-1.94,17.26-2.47,25.98-3.61,10.04-1.23,19.9-.26,29.76,.44,13.21,.97,26.33,3.61,39.1,7.22,41.56,11.71,79.08,31.79,114.39,56.09,.62,.44,1.23,.97,2.47,2.03h0Z"></path><path d="M612.1,809.79c-2.82,13.21-5.72,25.8-8.19,38.48-.7,3.52-1.85,5.28-5.9,5.2-9.25-.26-18.49-.18-27.74,0-3.35,.09-3.87-.97-3.26-4.14,7.4-33.9,14.62-67.89,21.84-101.8,3.96-18.58,7.84-37.07,11.62-55.65,.7-3.26,1.85-4.76,5.46-4.67,9.25,.26,18.49,.18,27.74,0,3.26-.09,4.31,.7,3.52,4.23-5.9,27.21-11.62,54.42-17.61,82.42,3.35-2.91,6.43-5.2,9.16-7.84,9.51-9.07,19.02-18.32,28.36-27.56,2.03-2.03,4.14-2.91,6.96-2.82,11.89,.09,23.78,0,35.66,.09,1.14,0,2.73-.53,3.26,.7,.62,1.5-.97,2.29-1.94,2.99-5.55,3.87-9.86,9.16-14.88,13.56-11.36,10.13-22.19,20.87-33.29,31.26-2.38,2.2-4.76,4.31-7.22,6.34-2.11,1.85-2.38,3.26-.53,5.81,12.77,17.44,25.27,35.05,37.87,52.66,.79,1.06,1.85,2.2,1.06,3.52-.62,1.14-2.11,.79-3.26,.79-11.45,0-22.9,0-34.34,.09-2.64,0-4.23-1.06-5.72-3.17-8.89-12.86-17.96-25.54-27.03-38.31-.26-.62-.7-1.14-1.59-2.2h0Z"></path><path d="M363.86,735.73c4.23,0,8.54,.26,12.77-.09,4.23-.35,5.02,1.32,4.23,5.02-2.2,9.95-4.31,19.99-6.43,29.94-2.73,12.86-5.46,25.63-8.1,38.48-1.59,7.66,4.4,15.06,12.15,15.59,7.84,.53,14.71-1.85,21.31-5.72,2.11-1.23,3.26-2.91,3.79-5.55,5.11-24.83,10.48-49.67,15.67-74.5,.53-2.38,1.59-3.26,3.87-3.26h29.5c4.76,0,2.47,3.52,2.11,5.37-2.03,10.48-4.4,20.87-6.6,31.26-5.55,25.98-11.18,51.87-16.64,77.84-.53,2.73-1.76,3.26-4.05,3.26-9.42-.09-18.76,0-28.18,0-.88,0-2.29,.09-2.55-.35-2.38-4.4-5.2-1.59-7.93-.62-13.56,4.67-27.12,5.37-40.51-.7-10.39-4.67-15.59-13.03-17.96-23.86-1.85-8.28-.53-16.38,1.14-24.3,4.31-21.31,9.25-42.44,13.65-63.75,.7-3.43,2.2-4.31,5.28-4.23,4.4,.26,8.89,.09,13.47,.18h0Z"></path><path d="M508.37,856.11c-15.76,.09-29.68-4.4-40.6-16.29-6.87-7.49-10.74-16.47-11.62-26.42-1.5-17.08,2.64-32.85,12.77-46.76,14.18-19.55,32.93-31.35,57.33-33.73,14.53-1.5,27.91,.97,40.07,8.89,4.14,2.73,7.49,6.52,10.48,10.48,1.76,2.38,1.23,3.96-.79,5.64-7.84,6.34-15.59,12.68-23.42,19.11-1.67,1.41-3.17,2.2-4.58-.35-8.45-15.59-24.22-14.18-35.58-7.57-11.36,6.6-18.58,16.38-20.43,29.59-1.76,12.15,7.49,25.01,20.69,25.18,11.62,.18,20.08-5.28,27.74-12.94,2.03-2.03,2.99-2.64,4.93-.09,5.37,6.87,11.01,13.56,16.64,20.34,1.23,1.5,1.32,2.82-.18,4.23-11.98,10.3-25.54,17.26-41.3,19.81-3.96,.7-8.01,.88-12.15,.88h0Z"></path><path class="cls-3" d="M234.15,247.71c-.35-22.54,7.57-40.07,22.1-54.77,2.91-2.91,5.9-5.72,8.89-8.45,.62-.53,1.59-1.67,2.64-.79,.7,.62,.44,1.67,.26,2.47-4.67,17.26-5.81,34.87-4.93,52.57,1.14,23.16,7.84,44.47,22.37,62.87,.7,.88,2.2,1.59,1.67,2.82-.79,1.85-2.38,.35-3.43,.18-16.91-3.26-31.97-9.69-41.39-25.1-6.25-10.04-8.54-21.49-8.19-31.79h0Z"></path><path class="cls-3" d="M270.96,362.45c-22.28,5.2-53.01-5.2-65.25-25.98-3.96-6.78-6.16-14.27-6.69-22.01-1.32-19.2,2.03-37.51,11.27-54.6,.26-.53,.44-1.14,.79-1.59,1.32-1.76,1.85-5.28,4.31-4.76,1.94,.35,.7,3.61,.88,5.55,1.67,15.5,3.52,31,9.33,45.61,4.4,11.1,10.48,21.13,18.14,30.29,7.75,9.16,16.2,17.61,25.8,25.01,.7,.44,1.41,1.06,1.41,2.47h0Z"></path><path class="cls-3" d="M334.36,133.67c2.11,.35,1.32,1.41,.62,2.47-2.2,3.43-4.49,6.87-6.6,10.3-9.77,16.11-15.5,33.73-17.7,52.31-1.85,15.32-.18,30.56,4.49,45.35,.35,1.23,.97,2.47,1.23,3.7,.44,2.29-.35,3.43-2.91,2.38-12.06-4.67-22.37-11.71-27.91-24.22-3.87-8.63-6.08-17.79-6.25-27.12-.18-12.94,4.4-24.66,12.77-34.61,10.92-13.03,24.74-22.19,39.89-29.41,.79-.44,1.59-.79,2.38-1.14h0Z"></path><path class="cls-3" d="M182.2,361.75c.26-11.27,2.55-21.57,6.34-31.61,.35-1.06,.62-2.55,2.11-2.38,1.32,.18,1.06,1.59,1.23,2.55,1.94,8.89,4.84,17.44,8.63,25.63,8.1,17.61,19.64,32.76,34.43,45.35,8.63,7.31,18.05,13.38,28.09,18.49,.88,.44,2.11,.7,2.03,1.94-.09,1.32-1.5,1.32-2.38,1.59-29.85,8.98-53.89,3.96-71.5-26.77-6.16-10.92-8.63-22.9-8.98-34.78Z"></path><path class="cls-3" d="M242.52,494.19c-16.29,0-30.12-4.31-41.04-15.06-9.77-9.69-15.32-21.93-18.32-35.31-1.5-6.43-1.94-12.94-2.64-19.46-.26-2.55-.18-6.25,1.85-7.13,2.03-.88,3.26,2.82,4.49,4.58,13.3,18.14,29.76,32.58,49.58,42.97,12.86,6.78,26.77,10.66,41.39,11.98,1.06,.09,2.64-.44,3.08,.97,.53,1.5-.88,2.38-1.85,3.17-7.75,6.25-16.47,10.57-26.33,12.24-3.7,.7-7.49,1.5-10.21,1.06h0Z"></path><path class="cls-3" d="M471.91,167.84c.88-21.75,6.87-39.01,23.95-50.63,10.04-6.87,21.31-10.48,33.46-12.06,13.74-1.76,26.68,.79,39.54,5.11,3.52,1.14,6.69,2.99,9.95,4.58,.97,.44,2.55,.79,2.38,2.2-.26,1.5-1.85,1.06-2.99,1.06-14.53,.44-28.62,3.35-42.44,8.01-16.56,5.64-29.85,15.59-41.04,28.88-7.22,8.63-13.03,17.96-17.61,28.09-.44,.97-.7,2.2-1.85,2.03-1.14-.18-1.32-1.32-1.5-2.38-.7-5.55-1.41-11.18-1.85-14.88h0Z"></path><path class="cls-3" d="M413.17,105.32c-5.64,5.46-11.27,10.48-16.56,15.94-16.91,17.44-27.65,37.87-30.73,62.08-1.32,10.21-.88,20.43,.35,30.56,.09,.79,.79,1.76-.35,2.29-.97,.44-1.67-.35-2.2-1.06-11.89-14.97-22.1-30.64-22.01-50.81,0-10.83,4.4-20.25,10.66-28.62,13.03-17.35,31-26.59,52.04-30.38,2.91-.44,5.9,0,8.81,0h0Z"></path><path class="cls-2" d="M521.49,520.25c1.76-1.85,3.26-3.43,4.4-4.67-1.14,1.23-2.64,2.91-4.4,4.76-4.84,5.2-8.81,8.98-9.33,9.51h-.09s3.79-3.79,9.42-9.6Z"></path><path class="cls-2" d="M526.24,515.06l-.26,.26h0c.09,0,.18-.18,.26-.26Z"></path></g><path class="cls-1" d="M555.04,432.11h0c-.44,.18-.7,.18-.79,.18,.09,0,.35-.09,.79-.18Z"></path><path class="cls-1" d="M569.74,432.72c-.09,0-.7-.18-1.59-.35l-.09-.09c.97,.18,1.5,.35,1.67,.44Z"></path></g></g></svg> 