<?xml version="1.0" encoding="utf-8"?>
<!-- Generator: Adobe Illustrator 16.0.0, SVG Export Plug-In . SVG Version: 6.00 Build 0)  -->
<!DOCTYPE svg PUBLIC "-//W3C//DTD SVG 1.1//EN" "http://www.w3.org/Graphics/SVG/1.1/DTD/svg11.dtd">
<svg version="1.1" id="图层_1" xmlns="http://www.w3.org/2000/svg" xmlns:xlink="http://www.w3.org/1999/xlink" x="0px" y="0px"
	 width="800px" height="800px" viewBox="0 0 800 800" enable-background="new 0 0 800 800" xml:space="preserve">
<path fill="#4285F4" d="M692.407,405.327c0-24.799-2.011-42.898-6.367-61.666H402.845v111.935h166.229
	c-3.351,27.817-21.447,69.712-61.665,97.859l-0.564,3.749l89.54,69.365l6.204,0.62C659.562,574.573,692.407,497.156,692.407,405.327
	"/>
<path fill="#34A853" d="M402.845,700.25c81.438,0,149.807-26.813,199.744-73.06l-95.18-73.732
	c-25.471,17.763-59.655,30.162-104.564,30.162c-79.763,0-147.461-52.614-171.594-125.341l-3.537,0.302l-93.105,72.054l-1.218,3.385
	C182.993,632.551,284.876,700.25,402.845,700.25"/>
<path fill="#FBBC05" d="M231.253,458.281c-6.367-18.768-10.051-38.877-10.051-59.654c0-20.779,3.684-40.888,9.718-59.655
	l-0.169-3.998l-94.273-73.212l-3.084,1.468c-20.442,40.887-32.174,86.802-32.174,135.397c0,48.595,11.73,94.507,32.174,135.395
	L231.253,458.281"/>
<path fill="#EB4335" d="M402.845,213.628c56.639,0,94.844,24.464,116.629,44.91l85.125-83.115
	C552.321,126.828,484.284,97,402.845,97c-117.969,0-219.852,67.697-269.452,166.228l97.526,75.742
	C255.385,266.246,323.083,213.628,402.845,213.628"/>
</svg>
