<?xml version="1.0" encoding="utf-8"?>
<!-- Generator: Adobe Illustrator 16.0.0, SVG Export Plug-In . SVG Version: 6.00 Build 0)  -->
<!DOCTYPE svg PUBLIC "-//W3C//DTD SVG 1.1//EN" "http://www.w3.org/Graphics/SVG/1.1/DTD/svg11.dtd">
<svg version="1.1" id="logosandtypes_com" xmlns="http://www.w3.org/2000/svg" xmlns:xlink="http://www.w3.org/1999/xlink" x="0px"
	 y="0px" width="1250px" height="792px" viewBox="0 0 1250 792" enable-background="new 0 0 1250 792" xml:space="preserve">
<path fill="none" d="M229,0h792v792H229V0z"/>
<path fill="#003E7D" d="M625.978,99.576c-160.849,0-291.594,130.295-291.594,291.144c0,160.848,130.745,291.144,291.594,291.144
	c160.848,0,290.695-130.744,290.695-291.144C916.674,229.872,786.826,99.576,625.978,99.576z M625.978,660.297
	c-148.717,0-269.13-120.861-269.13-269.577c0-148.717,120.861-269.129,269.577-269.129c42.684,0,84.469,10.334,122.208,29.655
	l-36.393,37.741h-26.509l11.232-44.031l-44.031,44.031h-25.609l10.783-43.133l-42.234,43.133h-26.508l10.783-42.685l-57.958,57.96
	v10.783h-82.67l59.308,33.248v329.783l-35.046,22.016h89.41V451.824c0-24.713,8.087-45.38,22.016-60.207
	c13.929-14.826,34.596-24.711,61.104-24.711c26.508-2.696,47.625,9.884,62.453,25.16c14.826,15.276,22.913,33.697,22.913,46.726
	v137.935l-34.596,23.363h88.961V445.532c0-40.436-16.174-70.987-39.538-91.207c-22.914-19.319-52.118-30.103-82.221-30.103
	c-30.104,0-69.642,10.783-100.643,55.713V241.104l26.06-26.059h-23.363v-5.392H739.2l14.378-56.61
	c131.194,70.09,180.617,233.183,110.976,364.378C816.929,605.483,725.272,660.297,625.978,660.297L625.978,660.297z"/>
</svg>
