<svg xmlns="http://www.w3.org/2000/svg" height="800" width="1200" version="1.0" viewBox="-106.3014 -37.8125 921.2788 226.875"><path d="M75.875 0L46.594 29.188h46.593v46.437l29.282-29.188V0zm17.313 75.625v46.438H46.593l29.281 29.187h46.594v-46.438zm0 0L46.593 29.187v92.876zm-46.594 46.438L0 75.624v46.438zM0 75.624l46.594-46.438H0z" fill="#e31a2f"/><path d="M153.544 24.038h17.312v103.195h-17.312V24.038m39.342 48.929l33.186-48.929H205.98l-33.82 48.955 38.38 54.24h21.713l-39.367-54.266m458.953 54.266h56.837V36.075c0-6.653-5.4-12.037-12.07-12.037h-54.703v15.685h49.449v27.054h-39.513c-6.681 0-12.082 5.389-12.082 12.04v36.375c0 6.651 5.413 12.042 12.082 12.042zm5.242-44.77h34.271v29.084h-34.27V82.463m-43.208-58.425c6.67 0 12.082 5.384 12.082 12.037v33.904c0 6.648-5.413 12.037-12.082 12.037h-6.998l25.14 45.217h-18.983l-33.576-60.456h29.175V39.723h-34.966v87.51h-17.324V24.038h57.532M479.28 36.074c0-6.652 5.4-12.036 12.069-12.036h50.327v15.685h-45.073v27.054h43.537v15.686h-43.537v29.084h45.073v15.686h-50.327c-6.67 0-12.07-5.39-12.07-12.04v-79.12m-74.686.001c0-6.652 5.413-12.036 12.082-12.036h49.608v15.685H421.93v71.824h44.353v15.686h-49.608c-6.669 0-12.082-5.39-12.082-12.04v-79.12m-86.67.002c0-6.653 5.401-12.037 12.07-12.037h47.45c6.668 0 12.07 5.384 12.07 12.038v79.119c0 6.648-5.402 12.038-12.083 12.038h-47.437c-6.669 0-12.07-5.39-12.07-12.04zm17.312 75.472h36.953V39.723h-36.953v71.824m-99.983-39.75V24.038h17.324v44.117h32.93V24.038h17.324v91.157c0 6.648-5.413 12.038-12.082 12.038l-51.327.005v-15.691l46.085.01v-27.72h-38.184c-6.67 0-12.07-5.39-12.07-12.04" fill="#231f20"/></svg>