<svg xmlns="http://www.w3.org/2000/svg" height="800" width="1200" xml:space="preserve" y="0" x="0" id="Layer_1" version="1.1" viewBox="-17.16 -4 148.72 24"><style id="style9714" type="text/css">.st0{fill:#231f20}</style><path transform="translate(248 -389)" id="polygon9716" class="st0" d="M-160.6 399.8l7.2-10.8h-4.4l-4.6 7.3-4.6-7.3h-4.7l7.1 10.9v5.1h4z"/><path transform="translate(248 -389)" id="polygon9718" class="st0" d="M-189.4 389l-8.7 8 8.7 8h-5.4l-8.7-8 8.7-8z"/><path id="rect9720" class="st0" d="M18.4 0h4.1v16h-4.1z"/><g transform="translate(248 -389)" id="g9732"><path id="path9722" d="M-188.5 405h12.8c2.2 0 3.7-1.2 3.7-3.8V399c0-2.3-1.2-3.8-3.7-3.8h-9.6v-3h12.4V389h-12.6c-2.3 0-3.7 1.3-3.7 3.8v2c0 2.2 1.3 3.7 3.7 3.7h9.6v3.3h-12.6v3.2" class="st0"/><path id="path9724" d="M-153.1 405h13.5c2.2 0 3.7-1.2 3.7-3.8V399c0-2.3-1.2-3.8-3.7-3.8h-9.6v-3h12.4V389h-12.7c-2.3 0-3.7 1.3-3.7 3.8v2c0 2.2 1.3 3.7 3.7 3.7h9.6v3.3h-13.2v3.2" class="st0"/><path id="polygon9726" class="st0" d="M-232.1 401.8h-11.8V389h-4.1v16h15.9z"/><path id="polygon9728" class="st0" d="M-218.7 393.6l12.1 11.4h2.5v-16h-3.7v9.6l-10.1-9.6h-4.5v16h3.7z"/><path id="path9730" d="M-135 389.2h-.4v1h-.2v-1h-.4v-.2h.9v.2zm1.4-.2h-.2l-.4.9-.5-.9h-.2v1.2h.2v-.9l.4.8h.1l.4-.8v.8h.2z" class="st0"/></g></svg>