<?xml version="1.0" encoding="utf-8"?>
<!-- Generator: Adobe Illustrator 16.0.0, SVG Export Plug-In . SVG Version: 6.00 Build 0)  -->
<!DOCTYPE svg PUBLIC "-//W3C//DTD SVG 1.1//EN" "http://www.w3.org/Graphics/SVG/1.1/DTD/svg11.dtd">
<svg version="1.1" id="图层_1" xmlns="http://www.w3.org/2000/svg" xmlns:xlink="http://www.w3.org/1999/xlink" x="0px" y="0px"
	 width="1200px" height="800px" viewBox="0 0 1200 800" enable-background="new 0 0 1200 800" xml:space="preserve">
<path fill="#004712" d="M776.582,410.134l-6.166,70.91l-20.348-14.183l2.465-35.766v-1.231l-0.617-0.615l-0.617-0.618
	l-43.779-28.981l0.615-31.449L776.582,410.134z M669.289,487.209l-31.447-24.048v5.55c0,1.233-0.619,2.468-1.234,3.083
	l-23.432,16.032l25.896,20.965l0.619,0.616v1.233l1.234,24.664l28.979,24.048L669.289,487.209z M471.353,518.04l14.797,70.91
	l61.048,64.746l-10.484-71.527L471.353,518.04z M528.698,528.524L513.9,429.249l-73.995-61.663l19.731,96.194L528.698,528.524z
	 M505.266,368.201l-20.347-140.587l-85.095-53.032l27.748,132.575L505.266,368.201z"/>
<path fill="#00B259" d="M837.01,371.901l-9.25,67.211l-50.563,40.696l6.166-69.063L837.01,371.901z M676.072,487.209l0.617,72.764
	l64.746-51.797l4.316-70.912L676.072,487.209z M634.14,516.807L542.88,582.17l11.099,75.229l82.628-65.979L634.14,516.807z
	 M631.676,467.478l-4.316-98.66l-106.676,61.046l14.799,102.359L631.676,467.478z M624.89,311.472l-5.549-133.188l-128.257,49.331
	l20.965,143.056L624.89,311.472z"/>
<path d="M844.41,364.503C844.41,363.885,844.41,363.885,844.41,364.503v-1.234c0,0,0-0.617-0.615-0.617c0,0-0.619,0-0.619-0.617
	l-73.994-41.314c-1.232-0.615-2.465-0.615-3.082,0l-62.898,38.231h-0.615v3.7l-0.617,33.298l-25.281-16.648
	c-1.232-0.617-2.465-0.617-3.699,0l-37.613,20.965l-1.85-36.998v-3.083h-0.617l-38.231-25.281l35.764-18.5
	c1.234-0.616,1.85-1.85,1.85-3.083L625.51,173.35v-0.618c0,0,0-0.617-0.617-0.617c0,0,0-0.617-0.615-0.617l-96.81-46.862
	c-0.617-0.618-1.232-0.618-1.851-0.618l-131.34,40.696c0,0-0.616,0-0.616,0.617c0,0-0.618,0-0.618,0.618v3.698l28.982,141.208
	c0,0.615,0.615,1.232,1.231,1.85l39.465,30.831l-28.981,13.564c0,0-0.617,0-0.617,0.617c0,0,0,0.618-0.616,0.618v1.232
	l22.198,106.061c0,0.616,0.618,1.231,1.232,1.849l27.749,25.898l-18.499,11.1l-0.617,0.615c0,0,0,0.615-0.618,0.615v1.851
	l17.265,82.012c0,0.616,0.618,1.232,0.618,1.85l67.21,73.995h0.618c0,0,0.615,0,0.615,0.616h3.083l88.792-70.912
	c0.619-0.616,1.234-1.85,1.234-2.466l-1.848-48.713l29.598,24.663c0,0,0.615,0,0.615,0.618h3.082l71.531-56.729
	c0.615-0.616,1.232-1.233,1.232-2.468l2.467-35.765l21.582,14.8h2.465c0,0,0.617,0,0.617-0.615l57.965-46.246
	c0.615-0.616,1.232-1.234,1.232-1.85L844.41,364.503C844.41,365.117,844.41,365.117,844.41,364.503z M777.197,479.809l6.166-69.063
	l54.264-38.846l-9.252,67.21L777.197,479.809z M750.068,466.862l2.465-35.766v-1.231l-0.617-0.615l-0.617-0.618l-43.779-28.981
	l0.615-31.449l68.447,42.547l-6.166,70.911L750.068,466.862z M740.816,508.176l-64.746,51.797l-0.615-72.764l69.678-49.947
	L740.816,508.176z M637.222,591.418l-83.242,65.98l-11.099-75.229l90.644-64.744L637.222,591.418z M485.536,588.95l-14.799-70.91
	l65.977,64.129l10.484,71.527L485.536,588.95z M484.302,227.613L504.65,368.2l-77.078-61.045l-27.748-132.574L484.302,227.613z
	 M619.342,178.283l5.549,133.188l-112.841,59.196l-20.965-143.056L619.342,178.283z M631.676,467.478l-96.194,64.129
	l-14.799-102.357l106.676-61.048L631.676,467.478z M513.9,429.865l14.797,99.276l-69.062-65.361l-19.731-96.194L513.9,429.865z
	 M640.306,510.644v-1.233l-0.615-0.617l-25.9-20.965l23.434-16.03c1.234-0.616,1.234-1.852,1.234-3.084v-5.55l31.447,24.048
	l0.617,72.763l-28.98-24.048L640.306,510.644z"/>
</svg>
