<?xml version="1.0" encoding="utf-8"?>
<!-- Generator: Adobe Illustrator 19.2.1, SVG Export Plug-In . SVG Version: 6.00 Build 0)  -->
<svg version="1.1" id="layer" xmlns="http://www.w3.org/2000/svg" xmlns:xlink="http://www.w3.org/1999/xlink" x="0px" y="0px"
	 viewBox="0 0 652 652" style="enable-background:new 0 0 652 652;" xml:space="preserve">
<style type="text/css">
	.st0{fill:#008880;}
</style>
<g id="symbol">
	<g id="header-_x2F_-default" transform="translate(-35.000000, -46.000000)">
		<g id="logo" transform="translate(35.000000, 46.000000)">
			<path id="Fill-1" class="st0" d="M607.2,289L607.2,289v-4.8h3c2.1,0,3,0.8,3,2.5c0,1.5-1.1,2.3-3.6,2.3H607.2z M615,295.2
				l-3.4-5.2c1.9-0.4,2.8-1.5,2.8-3.3c0-2.3-1.5-3.5-4.2-3.5h-4.2v12.5h1.1v-5.6h2.5h0.8l3.4,5.4v0.2h1.3L615,295.2z"/>
			<path id="Fill-3" class="st0" d="M416.3,322.4c-0.6-0.4-0.6-1.2,0-1.5l44.3-36.9c0.6-0.4,0.4-0.8-0.2-0.8H428
				c-0.8,0-1.7,0.4-2.3,0.8l-26.5,22.5c-0.6,0.4-1.3,0.4-1.9,0L371,284c-0.6-0.4-1.5-0.8-2.3-0.8h-32.4c-0.8,0-0.8,0.4-0.2,0.8
				l44.3,36.9c0.6,0.4,0.6,1.2,0,1.5l-46.6,39.4c-0.6,0.4-0.9,0.8-0.9,1h1.3h30.5c0.8,0,1.7-0.4,2.3-0.8l30.5-25.5
				c0.6-0.4,1.3-0.4,1.9,0l30.7,25.5c0.6,0.4,1.5,0.8,2.3,0.8h30.5h1.3c0,0-0.4-0.4-0.9-1L416.3,322.4z"/>
			<path id="Fill-5" class="st0" d="M614,362.8c0.8,0,0.9-0.4,0.4-1l-60.6-77.6c-0.4-0.6-1.3-1-2.1-1h-25c-0.8,0-1.5,0.4-2.1,1
				l-60.4,77.6c-0.4,0.6-0.2,1,0.4,1H493c0.8,0,1.5-0.4,1.9-1l43.4-57.8c0.4-0.6,1.1-0.6,1.5,0l43.2,57.8c0.4,0.6,1.3,1,1.9,1H614z"
				/>
			<path id="Fill-7" class="st0" d="M313.2,322.3c0,17.5-21.8,29.2-48.9,29.2c-26.9,0-48.7-11.9-48.7-29.2s21.8-29.2,48.7-29.2
				C291.5,293.1,313.2,305,313.2,322.3 M338.4,322.3c0-24.2-33.1-43.8-73.9-43.8s-73.9,19.6-73.9,43.8c0,24.2,33.1,44,73.9,44
				S338.4,346.4,338.4,322.3"/>
			<path id="Fill-9" class="st0" d="M609.8,299c-5.1,0-9.5-4.2-9.5-9.6c0-5.2,4.2-9.6,9.5-9.6c5.1,0,9.5,4.2,9.5,9.6
				C619.3,294.6,615.1,299,609.8,299 M609.8,278.9c-5.9,0-10.4,4.8-10.4,10.6c0,6,4.7,10.6,10.4,10.6c5.9,0,10.6-4.8,10.6-10.6
				S615.7,278.9,609.8,278.9"/>
			<path id="Fill-11" class="st0" d="M141.5,283.3c-0.8,0-1.5,0.4-1.9,1l-40.9,59.1c-0.4,0.6-0.9,0.6-1.5,0l-41.1-58.9
				c-0.4-0.6-1.3-1-1.9-1H21.6c-0.6-0.2-1.1,0.4-1.1,1.2v77c0,0.8,0.6,1.3,1.3,1.3h26.7c0.8,0,1.3-0.6,1.3-1.3v-51.5
				c0-0.8,0.4-0.8,0.8-0.2l36.9,51.8c0.4,0.6,1.3,1,1.9,1h17.2c0.8,0,1.5-0.4,1.9-1l36.9-52c0.4-0.6,0.8-0.4,0.8,0.2v51.5
				c0,0.8,0.6,1.3,1.3,1.3H174c0.8,0,1.3-0.6,1.3-1.3v-76.8c0-0.8-0.6-1.3-1.3-1.3H141.5z"/>
		</g>
	</g>
</g>
</svg>
