<svg xmlns="http://www.w3.org/2000/svg" height="800" width="1200" viewBox="-29.85 -7.190725 258.7 43.14435"><path d="M0 27.9612V.8336h7.3632l12.4012 16.664V.8337h7.3632v27.1276h-7.3632L7.3632 11.1762v16.785zm35.8471 0V.8336h18.0205v6.0068H43.2103v4.5536H53.48v5.91H43.2103v4.6503h10.6573v6.0069zm37.7849 0h-7.557V6.8404h-7.1694V.8336h21.8958v6.0068h-7.1695zm25.093-15.114h14.5324c0 10.3972-5.467 15.9156-14.3478 15.9156-8.595 0-15.0466-5.2493-15.0466-14.0548C83.863 5.6204 89.716 0 98.7403 0c10.2022 0 12.9904 7.596 12.9904 7.596l-6.9911 2.7818s-1.6377-4.2817-6.2412-4.2817c-3.3704 0-6.9428 2.544-6.9428 8.491 0 4.9792 3.1944 8.4183 7.3056 8.4183 3.677 0 5.4902-2.1007 5.7737-4.7327h-5.91zM152.108.836l-9.9305 27.1277h7.6054l1.6954-5.038h9.8338l1.6954 5.038h7.6539L160.6339.836zm4.263 7.0242l3.2456 9.7369h-6.4186zM175.1665.836v27.1277h7.3632V17.5002h.5813l6.7819 10.4635H199l-8.55-11.1538c2.9532-.4648 6.1885-2.721 6.1885-7.5691 0-4.7622-3.0004-8.4047-10.3061-8.4047zm7.3632 5.4256h1.9377c3.8139 0 4.7473 1.391 4.7473 3.391 0 2.4074-1.5388 3.3909-4.7473 3.3909h-1.9377zm-62.7809 21.6996V.8336h18.0204v6.0068H127.112v4.5536h10.2697v5.91H127.112v4.6504h10.6572v6.0068z" fill="#6b0e89"/></svg>