<?xml version="1.0" encoding="utf-8"?>
<!-- Generator: Adobe Illustrator 16.0.0, SVG Export Plug-In . SVG Version: 6.00 Build 0)  -->
<!DOCTYPE svg PUBLIC "-//W3C//DTD SVG 1.1//EN" "http://www.w3.org/Graphics/SVG/1.1/DTD/svg11.dtd">
<svg version="1.1" id="图层_1" xmlns="http://www.w3.org/2000/svg" xmlns:xlink="http://www.w3.org/1999/xlink" x="0px" y="0px"
	 width="800px" height="800px" viewBox="0 0 800 800" enable-background="new 0 0 800 800" xml:space="preserve">
<g>
	<path fill="#EA1B22" stroke="#DC2023" stroke-miterlimit="10" d="M345.366,395.817h52.862l-27.951-44.97l-51.302,81.308h-23.35
		l62.399-97.668c2.713-3.945,7.234-6.33,12.25-6.33c4.85,0,9.371,2.304,12.002,6.166l62.646,97.832h-23.351l-11.017-18.169H357.04
		L345.366,395.817L345.366,395.817z M587.892,413.986v-84.843H568.08v93.146c0,2.55,0.986,5.016,2.877,6.905
		c1.893,1.893,4.439,2.959,7.234,2.959h90.354l11.675-18.169L587.892,413.986L587.892,413.986z M260.112,398.777
		c19.237,0,34.858-15.538,34.858-34.773c0-19.238-15.621-34.858-34.858-34.858h-86.677v103.012h19.805v-84.843h65.557
		c9.208,0,16.606,7.481,16.606,16.689c0,9.207-7.398,16.688-16.606,16.688l-55.854-0.082l59.144,51.547h28.774l-39.79-33.378
		L260.112,398.777L260.112,398.777z M51.514,432.155C23.077,432.155,0,409.135,0,380.69c0-28.444,23.077-51.547,51.517-51.547
		h59.875c28.443,0,51.506,23.103,51.506,51.547c0,28.445-23.063,51.465-51.506,51.465H51.514L51.514,432.155z M110.057,413.986
		c18.425,0,33.346-14.88,33.346-33.296c0-18.415-14.921-33.378-33.346-33.378H52.837c-18.415,0-33.346,14.963-33.346,33.378
		c0,18.416,14.931,33.296,33.346,33.296H110.057L110.057,413.986z M486.278,432.155c-28.444,0-51.547-23.02-51.547-51.465
		c0-28.444,23.103-51.547,51.547-51.547h71.113l-11.591,18.169h-58.206c-18.416,0-33.378,14.963-33.378,33.378
		c0,18.416,14.962,33.296,33.378,33.296h71.44l-11.674,18.169H486.278L486.278,432.155z M728.558,413.986
		c-15.21,0-28.117-10.192-32.063-24.252h84.681l11.674-18.169h-96.354c3.946-13.977,16.854-24.253,32.063-24.253h58.124
		l11.756-18.169h-71.195c-28.444,0-51.547,23.103-51.547,51.547c0,28.445,23.103,51.465,51.547,51.465h61.083L800,413.986H728.558
		L728.558,413.986z"/>
</g>
</svg>
