<?xml version="1.0" encoding="utf-8"?>
<!-- Generator: Adobe Illustrator 16.0.0, SVG Export Plug-In . SVG Version: 6.00 Build 0)  -->
<!DOCTYPE svg PUBLIC "-//W3C//DTD SVG 1.1//EN" "http://www.w3.org/Graphics/SVG/1.1/DTD/svg11.dtd">
<svg version="1.1" id="图层_1" xmlns="http://www.w3.org/2000/svg" xmlns:xlink="http://www.w3.org/1999/xlink" x="0px" y="0px"
	 width="200px" height="200px" viewBox="0 0 200 200" enable-background="new 0 0 200 200" xml:space="preserve">
<path fill="#1E6FFF" d="M155.026,77.11c-0.458-0.007-0.91,0.083-1.329,0.262l-46.249,23.981h-0.029
	c-1.977,1.227-3.253,3.255-3.253,5.577v48.411c0,1.662,1.457,2.992,3.306,2.992c0.554,0.003,1.099-0.122,1.595-0.368
	c0.047-0.021,0.098-0.047,0.127-0.077l45.494-24.137l0.076-0.029c2.136-1.167,3.571-3.309,3.571-5.751V80.104
	C158.334,78.44,156.846,77.11,155.026,77.11z M151.643,64.195l-47.326-21.28c0,0-2.783-1.248-4.317-1.248
	c-1.535,0-4.299,1.248-4.299,1.248l-47.365,21.28c0,0-2.083,0.858-2.083,2.474c0,1.714,2.158,2.992,2.158,2.992l48.307,25.468
	c0.991,0.444,2.111,0.676,3.284,0.676c1.195,0,2.316-0.256,3.308-0.7l48.284-25.492c0,0,1.954-1.049,1.954-2.999
	C153.568,64.976,151.643,64.195,151.643,64.195z M92.58,101.355L46.304,77.343c-0.423-0.169-0.874-0.259-1.33-0.262
	c-1.826,0-3.308,1.33-3.308,2.998v47.863c0,2.449,1.435,4.585,3.57,5.759l0.053,0.021l45.494,24.145
	c0.524,0.292,1.115,0.443,1.715,0.437c1.826,0,3.308-1.354,3.308-2.992V106.93C95.834,104.608,94.528,102.555,92.58,101.355z"/>
</svg>
