<?xml version="1.0" encoding="utf-8"?>
<!-- Generator: Adobe Illustrator 16.0.0, SVG Export Plug-In . SVG Version: 6.00 Build 0)  -->
<!DOCTYPE svg PUBLIC "-//W3C//DTD SVG 1.1//EN" "http://www.w3.org/Graphics/SVG/1.1/DTD/svg11.dtd">
<svg version="1.1" id="图层_1" xmlns="http://www.w3.org/2000/svg" xmlns:xlink="http://www.w3.org/1999/xlink" x="0px" y="0px"
	 width="256px" height="221px" viewBox="0 0 256 221" enable-background="new 0 0 256 221" xml:space="preserve">
<title>Vultr</title>
<g>
	<path fill="#C9F4FF" d="M98.886,32.098c-1.724-2.82-4.784-4.55-8.089-4.57H41.618c-5.301,0-9.598,4.297-9.598,9.598
		c0,1.81,0.507,3.583,1.462,5.119l12.66,18.602l63.301-13.711L98.886,32.098z"/>
	<path fill="#51B9FF" d="M109.718,47.5c-1.745-2.822-4.818-4.548-8.135-4.57H52.587c-3.591-0.166-6.971,1.699-8.747,4.825
		s-1.645,6.984,0.337,9.983l14.123,22.395l65.403-10.237L109.718,47.5z"/>
	<path fill="#007BFC" d="M57.707,79.219c-1.607-2.574-1.928-5.749-0.869-8.592c1.469-3.75,5.114-6.192,9.141-6.125h48.995
		c3.319,0.014,6.397,1.743,8.136,4.571l44.013,69.791c0.956,1.537,1.462,3.31,1.462,5.118c-0.006,1.809-0.512,3.579-1.462,5.119
		l-24.59,38.986c-1.771,2.781-4.838,4.465-8.135,4.465s-6.365-1.684-8.135-4.465L57.707,79.219z"/>
	<path fill="#007BFC" d="M181.658,101.523c1.77,2.781,4.837,4.465,8.135,4.465c3.297,0,6.365-1.684,8.136-4.465l8.455-13.392
		l16.133-25.594c0.956-1.536,1.463-3.31,1.463-5.119c-0.007-1.809-0.513-3.58-1.463-5.119L209.72,32.098
		c-1.745-2.821-4.818-4.547-8.136-4.57h-49.178c-2.545,0-4.986,1.011-6.787,2.812c-1.799,1.8-2.811,4.241-2.811,6.786
		c-0.019,1.818,0.507,3.601,1.508,5.119L181.658,101.523z"/>
</g>
</svg>
